<svg width="72" height="72" viewBox="0 0 72 72" fill="none" xmlns="http://www.w3.org/2000/svg">
<path d="M53.4272 42.9049C52.3686 39.0673 50.0801 35.6831 46.913 33.2713C43.7459 30.8595 39.8749 29.5535 35.894 29.5535C31.9131 29.5535 28.0422 30.8595 24.8751 33.2713C21.7079 35.6831 19.4195 39.0673 18.3609 42.9049L15.8382 52.0499C15.3852 53.6919 15.3176 55.4163 15.6407 57.0886C15.9638 58.761 16.6687 60.3362 17.7006 61.6913C18.7326 63.0464 20.0635 64.1449 21.5898 64.9011C23.116 65.6572 24.7963 66.0507 26.4996 66.0507H45.2884C46.9917 66.0507 48.672 65.6572 50.1983 64.9011C51.7245 64.1449 53.0555 63.0464 54.0874 61.6913C55.1193 60.3362 55.8243 58.761 56.1474 57.0886C56.4704 55.4163 56.4028 53.6919 55.9499 52.0499L53.4272 42.9049ZM50.568 59.0106C49.9515 59.8267 49.1535 60.488 48.2371 60.9421C47.3207 61.3962 46.3112 61.6306 45.2884 61.6268H26.4996C25.4776 61.6268 24.4694 61.3908 23.5537 60.9371C22.6379 60.4834 21.8393 59.8243 21.2201 59.0112C20.601 58.1981 20.178 57.253 19.9842 56.2495C19.7903 55.2461 19.8309 54.2114 20.1027 53.2262L22.6254 44.0813C23.4265 41.1772 25.1583 38.6161 27.5552 36.7909C29.952 34.9658 32.8814 33.9774 35.894 33.9774C38.9067 33.9774 41.8361 34.9658 44.2329 36.7909C46.6297 38.6161 48.3615 41.1772 49.1627 44.0813L51.6854 53.2262C51.9611 54.211 52.0037 55.2465 51.8097 56.2506C51.6157 57.2547 51.1906 58.1999 50.568 59.0112V59.0106Z" fill="black"/>
<path d="M20.6988 32.6378C21.0837 30.2323 20.5733 27.6572 19.261 25.385C17.9488 23.1128 15.9735 21.3832 13.6984 20.5137C11.262 19.5832 8.77683 19.7314 6.69843 20.9308C2.56665 23.3164 1.47934 29.1959 4.2751 34.0373C5.58692 36.3095 7.56233 38.0395 9.83746 38.9086C10.8453 39.3013 11.9166 39.5061 12.9982 39.5128C14.3457 39.5177 15.6705 39.1652 16.8374 38.4913C18.9146 37.2918 20.286 35.213 20.6988 32.6378ZM16.3302 31.9386C16.1325 33.173 15.527 34.1395 14.6252 34.6601C13.7234 35.1807 12.5837 35.2217 11.4155 34.7758C10.0866 34.2683 8.9112 33.2204 8.10578 31.8254C6.55742 29.1434 6.92543 25.9084 8.91038 24.7621C9.40936 24.4789 9.97448 24.333 10.5482 24.3393C11.0863 24.3449 11.619 24.4487 12.1198 24.6458C13.4487 25.1536 14.6241 26.2013 15.4295 27.5964C16.235 28.9914 16.5547 30.5339 16.3302 31.9386ZM21.178 23.473C22.7487 24.7287 24.5425 25.3826 26.3564 25.3825C26.8998 25.3823 27.4415 25.3239 27.9724 25.2082C32.6345 24.1947 35.4612 18.9258 34.2737 13.463C33.7165 10.8991 32.362 8.64967 30.4597 7.12882C28.4227 5.50028 26.0097 4.88383 23.6653 5.39369C19.0034 6.40704 16.1766 11.6759 17.364 17.1387C17.9213 19.7028 19.2758 21.9522 21.178 23.473ZM24.6048 9.71666C24.8198 9.67031 25.0391 9.64714 25.259 9.64754C26.0813 9.64754 26.9271 9.96924 27.6973 10.585C28.8084 11.4732 29.6087 12.8293 29.9507 14.4035C30.6088 17.4304 29.2725 20.399 27.0327 20.8859C26.0151 21.1071 24.9169 20.7991 23.9406 20.0184C22.8295 19.13 22.0292 17.774 21.6871 16.1999C21.0289 13.1721 22.3652 10.2036 24.6048 9.71666ZM65.0858 20.9308C63.0083 19.7314 60.5219 19.5832 58.0858 20.5137C55.8107 21.3829 53.8353 23.1128 52.5235 25.385C51.2117 27.6572 50.7011 30.2329 51.0857 32.6378C51.498 35.213 52.8691 37.2918 54.9471 38.4913C56.114 39.1653 57.4388 39.5178 58.7863 39.5128C59.868 39.5061 60.9392 39.3013 61.9471 38.9086C64.2222 38.0395 66.1976 36.3095 67.5094 34.0373C70.3049 29.1959 69.2176 23.3164 65.0858 20.9308ZM63.6785 31.8254C62.873 33.2204 61.6977 34.2683 60.3687 34.7758C59.2011 35.2221 58.0611 35.181 57.1593 34.6601C56.2575 34.1392 55.6524 33.173 55.4543 31.9386C55.2295 30.5339 55.5492 28.992 56.3547 27.5976C57.1603 26.2033 58.3355 25.1548 59.6645 24.647C60.1653 24.4498 60.6979 24.3457 61.2361 24.34C61.8098 24.3337 62.3749 24.4796 62.8739 24.7627C64.8588 25.9081 65.2272 29.1427 63.6785 31.8254ZM43.8119 25.2082C44.3427 25.3239 44.8845 25.3823 45.4278 25.3825C47.2416 25.3825 49.0361 24.7287 50.6063 23.473C52.5084 21.9523 53.863 19.7028 54.4202 17.1389C55.6076 11.676 52.7809 6.40717 48.1189 5.39383C45.7747 4.88425 43.3616 5.50027 41.3245 7.12896C39.4223 8.64967 38.0677 10.8992 37.5106 13.463C36.323 18.9258 39.1498 24.1947 43.8119 25.2082ZM41.8336 14.4028C42.1756 12.8286 42.9759 11.472 44.087 10.5843C44.8573 9.96855 45.7029 9.64685 46.5252 9.64685C46.7451 9.64645 46.9645 9.66962 47.1794 9.71597C49.419 10.2029 50.7553 13.1721 50.0974 16.1984C49.7551 17.7726 48.9548 19.1292 47.844 20.017C46.8678 20.7976 45.7703 21.1056 44.7518 20.8845C42.5118 20.3983 41.1755 17.4293 41.8336 14.4028Z" fill="black"/>
</svg>
